{"title":"5 Seconds Of Summer - Good Girls [Music Video] 720p [Sbyky]","uid":11702274,"size":48655279,"categoryP":"video","categoryS":"music_videos","magnet":"?xt=urn:btih:a60abc3e193f7fac26ecb1ca76ce1a760d38bbf4&amp;dn=5+Seconds+Of+Summer+-+Good+Girls+%5BMusic+Video%5D+720p+%5BSbyky%5D&amp;tr=udp%3A%2F%2Ftracker.openbittorrent.com%3A80&amp;tr=udp%3A%2F%2Fopen.demonii.com%3A1337&amp;tr=udp%3A%2F%2Ftracker.coppersurfer.tk%3A6969&amp;tr=udp%3A%2F%2Fexodus.desync.com%3A6969","seeders":0,"leechers":1,"uploader":"Sbyky","files":1,"time":1423964484,"description":"General\nComplete name                            : 5 Seconds Of Summer - Good Girls [Music Video] 720p [Sbyky].mp4\nFormat                                   : MPEG-4\nFormat profile                           : Base Media\nCodec ID                                 : isom\nFile size                                : 46.4 MiB\nDuration                                 : 4mn 12s\nOverall bit rate mode                    : Variable\nOverall bit rate                         : 1 540 Kbps\nEncoded date                             : UTC 2014-11-04 02:50:12\nTagged date                              : UTC 2014-11-04 02:50:12\n\nVideo\nID                                       : 1\nFormat                                   : AVC\nFormat/Info                              : Advanced Video Codec\nFormat profile                           : &lt;a class=&quot;__cf_email__&quot; href=&quot;/cdn-cgi/l/email-protection&quot; data-cfemail=&quot;1d507c74735d512e332c&quot;&gt;[email&amp;#160;protected]&lt;/a&gt;&lt;script cf-hash='f9e31' type=&quot;text/javascript&quot;&gt;\n/* &lt;![CDATA[ */!function(){try{var t=&quot;currentScript&quot;in document?document.currentScript:function(){for(var t=document.getElementsByTagName(&quot;script&quot;),e=t.length;e--;)if(t[e].getAttribute(&quot;cf-hash&quot;))return t[e]}();if(t&amp;&amp;t.previousSibling){var e,r,n,i,c=t.previousSibling,a=c.getAttribute(&quot;data-cfemail&quot;);if(a){for(e=&quot;&quot;,r=parseInt(a.substr(0,2),16),n=2;a.length-n;n+=2)i=parseInt(a.substr(n,2),16)^r,e+=String.fromCharCode(i);e=document.createTextNode(e),c.parentNode.replaceChild(e,c)}}}catch(u){}}();/* ]]&gt; */&lt;/script&gt;\nFormat settings, CABAC                   : Yes\nFormat settings, ReFrames                : 3 frames\nCodec ID                                 : avc1\nCodec ID/Info                            : Advanced Video Coding\nDuration                                 : 4mn 12s\nBit rate                                 : 1 410 Kbps\nWidth                                    : 1 280 pixels\nHeight                                   : 720 pixels\nDisplay aspect ratio                     : 16:9\nFrame rate mode                          : Variable\nFrame rate                               : 23.976 fps\nMinimum frame rate                       : 23.974 fps\nMaximum frame rate                       : 23.981 fps\nColor space                              : YUV\nChroma subsampling                       : 4:2:0\nBit depth                                : 8 bits\nScan type                                : Progressive\nBits/(Pixel*Frame)                       : 0.064\nStream size                              : 42.5 MiB (92%)\nEncoded date                             : UTC 2014-11-04 02:50:12\nTagged date                              : UTC 2014-11-04 02:50:12\n\nAudio\nID                                       : 2\nFormat                                   : AAC\nFormat/Info                              : Advanced Audio Codec\nFormat profile                           : LC\nCodec ID                                 : 40\nDuration                                 : 4mn 12s\nBit rate mode                            : Variable\nBit rate                                 : 126 Kbps\nChannel(s)                               : 2 channels\nChannel positions                        : Front: L R\nSampling rate                            : 44.1 KHz\nCompression mode                         : Lossy\nStream size                              : 3.79 MiB (8%)\nEncoded date                             : UTC 2014-11-04 02:49:18\nTagged date                              : UTC 2014-11-04 02:49:18\n\nShared By Sbyky","torrent":{"xt":"urn:btih:a60abc3e193f7fac26ecb1ca76ce1a760d38bbf4","amp;dn":"5+Seconds+Of+Summer+-+Good+Girls+%5BMusic+Video%5D+720p+%5BSbyky%5D","amp;tr":["udp%3A%2F%2Ftracker.openbittorrent.com%3A80","udp%3A%2F%2Fopen.demonii.com%3A1337","udp%3A%2F%2Ftracker.coppersurfer.tk%3A6969","udp%3A%2F%2Fexodus.desync.com%3A6969"],"infoHash":"a60abc3e193f7fac26ecb1ca76ce1a760d38bbf4","infoHashBuffer":{"type":"Buffer","data":[166,10,188,62,25,63,127,172,38,236,177,202,118,206,26,118,13,56,187,244]},"announce":[],"urlList":[]}}